<?xml version="1.0" encoding="utf-8"?>
<!-- Generator: Adobe Illustrator 23.0.1, SVG Export Plug-In . SVG Version: 6.00 Build 0)  -->
<svg version="1.1" id="Laag_1" xmlns="http://www.w3.org/2000/svg" xmlns:xlink="http://www.w3.org/1999/xlink" x="0px" y="0px"
	 viewBox="0 0 313.9 80.8" style="enable-background:new 0 0 313.9 80.8;" xml:space="preserve">
<style type="text/css">
	.st0{fill:#FFFFFF;}
	.st1{fill:#FFFFFF;stroke:#F18F10;stroke-linejoin:round;}
	.st2{fill:#FFFFFF;stroke:#F18F10;stroke-width:0.75;stroke-miterlimit:10;}
</style>
<g id="Layer_2">
	<g id="Layer_1-2">
		<path class="st0" d="M101.4,24.7c0.5,0,0.8,0.4,0.8,0.8c0,0,0,0,0,0V49h12.2c0.5,0,0.8,0.4,0.8,0.8c0,0,0,0,0,0v5.6
			c0,0.5-0.4,0.8-0.8,0.8c0,0,0,0,0,0H94.9c-0.5,0-0.8-0.4-0.8-0.8c0,0,0,0,0,0V25.5c0-0.5,0.4-0.8,0.8-0.8c0,0,0,0,0,0H101.4z"/>
		<path class="st0" d="M118.8,25.8c0-2.4,1.9-4.3,4.3-4.3s4.3,1.9,4.3,4.3c0,2.4-1.9,4.3-4.3,4.3C120.7,30.1,118.8,28.2,118.8,25.8
			C118.8,25.8,118.8,25.8,118.8,25.8z M120.1,34.8h5.8c0.5,0,0.8,0.4,0.8,0.8c0,0,0,0,0,0v19.7c0,0.5-0.4,0.8-0.8,0.8c0,0,0,0,0,0
			h-5.8c-0.5,0-0.8-0.4-0.8-0.8c0,0,0,0,0,0V35.7C119.3,35.2,119.7,34.8,120.1,34.8C120.1,34.8,120.1,34.8,120.1,34.8z"/>
		<path class="st0" d="M140.9,42.3c-0.6,1.3-0.9,2.7-0.9,4.1v9c0,0.5-0.4,0.8-0.8,0.8c0,0,0,0,0,0h-5.8c-0.5,0-0.8-0.4-0.8-0.8
			c0,0,0,0,0,0V35.7c0-0.5,0.4-0.8,0.8-0.8c0,0,0,0,0,0h5.6c0.5,0,0.8,0.4,0.8,0.8c0,0,0,0,0,0v1h0.1c1.6-1.4,3.7-2.2,5.8-2.2
			c2.3,0,4.6,0.6,6.3,2.1c1.4,1.3,2.4,3.4,2.4,6.5v12.3c0,0.5-0.4,0.8-0.8,0.8c0,0,0,0,0,0h-5.8c-0.5,0-0.8-0.4-0.8-0.8c0,0,0,0,0,0
			V44.8c0-1.1,0-2.4-0.7-3.3c-0.6-0.6-1.4-0.9-2.2-0.9C142.7,40.5,141.5,41.2,140.9,42.3z"/>
		<path class="st0" d="M169.3,48.5l-2,1.9v5.1c0,0.5-0.4,0.8-0.8,0.8c0,0,0,0,0,0h-5.8c-0.5,0-0.8-0.4-0.8-0.8c0,0,0,0,0,0V25.5
			c0-0.5,0.4-0.8,0.8-0.8c0,0,0,0,0,0h5.8c0.5,0,0.8,0.4,0.8,0.8c0,0,0,0,0,0v16.7l6.2-6.7c0.4-0.5,1-0.8,1.6-0.7h6.9
			c0.9,0,1.2,0.8,0.6,1.4l-8,7.4l8.2,11.3c0.4,0.6,0.3,1.3-0.6,1.3h-6.7c-0.6,0.1-1.2-0.3-1.4-0.8L169.3,48.5z"/>
		<path class="st0" d="M208.8,24.7c0.2,0,0.4,0.2,0.4,0.5v2.4c0,0.2-0.2,0.4-0.4,0.5c0,0,0,0,0,0h-10.6v27.9c0,0.2-0.2,0.4-0.4,0.4
			c0,0,0,0,0,0h-2.8c-0.2,0-0.4-0.2-0.5-0.4c0,0,0,0,0,0V28h-10.6c-0.2,0-0.4-0.2-0.4-0.4c0,0,0,0,0,0v-2.4c0-0.2,0.2-0.4,0.4-0.5
			L208.8,24.7z"/>
		<path class="st0" d="M216.1,38.8c1.4-2.7,4.2-3.9,7.3-3.9c2.5,0,4.6,0.6,6.1,1.9c1.6,1.4,2.5,3.8,2.5,7v12c0,0.2-0.2,0.4-0.5,0.4
			h-2.5c-0.2,0-0.4-0.2-0.5-0.4V44.6c0-2.3-0.5-4.2-1.7-5.3c-0.9-0.9-2.2-1.3-4.1-1.3c-2.3-0.1-4.4,1.2-5.5,3.2
			c-0.8,1.7-1.3,3.6-1.2,5.6v9.2c0,0.2-0.2,0.4-0.4,0.4c0,0,0,0,0,0h-2.6c-0.2,0-0.4-0.2-0.5-0.4V25.1c0-0.2,0.2-0.4,0.5-0.5h2.6
			c0.2,0,0.4,0.2,0.4,0.5V38.8z"/>
		<path class="st0" d="M238,25.3c0-1.1,0.9-2,2-2c1.1,0,2,0.9,2,2c0,1.1-0.9,2-2,2l0,0C239,27.4,238.1,26.5,238,25.3
			C238,25.4,238,25.3,238,25.3z M238.9,35.3h2.5c0.2,0,0.4,0.2,0.4,0.5v20.1c0,0.2-0.2,0.4-0.4,0.4c0,0,0,0,0,0h-2.5
			c-0.2,0-0.4-0.2-0.5-0.4V35.8C238.5,35.5,238.7,35.3,238.9,35.3z"/>
		<path class="st0" d="M252,38.8c1.4-2.7,4.2-3.9,7.3-3.9c2.5,0,4.6,0.6,6.1,1.9c1.6,1.4,2.5,3.8,2.5,7v12c0,0.2-0.2,0.4-0.5,0.4
			H265c-0.2,0-0.4-0.2-0.5-0.4V44.6c0-2.3-0.5-4.2-1.7-5.3c-0.9-0.9-2.2-1.3-4.1-1.3c-2.3-0.1-4.4,1.2-5.5,3.2
			c-0.8,1.7-1.3,3.6-1.2,5.6v9.2c0,0.2-0.2,0.4-0.4,0.4c0,0,0,0,0,0H249c-0.2,0-0.4-0.2-0.5-0.4V35.8c0-0.2,0.2-0.4,0.5-0.5h2.4
			c0.2,0,0.4,0.2,0.5,0.5v3.1L252,38.8z"/>
		<path class="st0" d="M287.2,62.5c1.1-1.2,1.6-2.9,1.6-5.2v-2.7c-1.9,1.6-3.9,2.1-6.3,2.1c-2.6,0.1-5-1-6.8-2.9
			c-1.8-2-2.7-4.9-2.7-8c0-3,0.8-5.9,2.6-8c1.7-1.9,4.2-3,6.8-2.9c2.3-0.1,4.5,0.7,6.3,2.2h0.1v-1.3c0-0.2,0.2-0.4,0.4-0.5h2.4
			c0.3,0,0.5,0.2,0.5,0.5c0,0,0,0,0,0v21.2c0,3.3-0.8,5.9-2.6,7.7c-1.6,1.6-4.1,2.4-7.2,2.4c-2.7,0-5.4-0.8-7.7-2.2
			c-0.2-0.1-0.3-0.3-0.2-0.6l0.9-1.9c0.1-0.2,0.4-0.3,0.7-0.1c1.8,1.3,4,2,6.3,2C284.5,64.3,286.2,63.6,287.2,62.5z M288.7,51.6
			V40.1c-1.2-1-3-2.4-5.9-2.4c-1.8-0.1-3.5,0.7-4.6,2.1c-1.3,1.5-1.8,3.7-1.8,5.9c0,2.4,0.6,4.5,1.8,6c1.1,1.4,2.9,2.2,4.6,2.1
			C285,53.9,287.1,53.1,288.7,51.6L288.7,51.6z"/>
		<path class="st0" d="M309.1,50.8c0-1.8-1.3-2.6-3-3.3c-1.3-0.6-3.4-1.2-5.1-1.9c-2-0.9-3.4-2.5-3.4-5.1c0-3.5,2.7-5.7,7.7-5.7
			c2.3,0,4.5,0.5,6.5,1.5c0.3,0.2,0.3,0.4,0.2,0.6l-0.9,1.9c-0.1,0.3-0.3,0.3-0.6,0.1c-1.5-0.9-3.3-1.3-5.1-1.3
			c-2.9,0-4.3,1-4.3,2.8c0,1.5,1.2,2.2,2.6,2.8c1.6,0.7,3.7,1.3,5.1,1.9c2.4,1.1,3.9,2.7,3.9,5.2c0,3.8-3,6.2-7.7,6.2
			c-2.5,0.1-5-0.5-7.3-1.8c-0.3-0.1-0.3-0.3-0.2-0.6l0.9-1.9c0.1-0.3,0.3-0.4,0.6-0.2c1.7,1.1,3.7,1.7,5.8,1.7
			C307.4,54,309.1,53.1,309.1,50.8z"/>
		<path class="st0" d="M64.3,18.4l0.9-2c0.2-0.4,0.2-0.9,0.1-1.3l-2.7-9.7c-0.3-1-1.4-1.6-2.4-1.3c-0.1,0-0.2,0.1-0.3,0.1l-8.9,4.2
			c-18.1-7.7-39,0.7-46.7,18.8s0.7,39,18.8,46.7s39-0.7,46.7-18.8C74.9,42.9,72.8,28.7,64.3,18.4z M37,73.8
			c-18,0-32.7-14.6-32.7-32.7S18.9,8.5,37,8.5c5.4,0,10.7,1.3,15.4,3.9l0.2-0.4l6.8-3.2l1.9,6.8l-6,14.2c-0.2,0.5-0.2,1.1,0,1.6
			c1.4,2.8,2.2,6,2.2,9.2c0,11.3-9.2,20.5-20.5,20.5s-20.5-9.2-20.5-20.5c0-11.3,9.2-20.5,20.5-20.5c2.3,0,4.7,0.4,6.9,1.2
			l-4.7,10.6L37.1,29c-0.6-0.9-1.8-1-2.7-0.4c-0.3,0.2-0.6,0.6-0.7,0.9l-3.9,11.3c-2,0.4-3.3,2.3-3,4.3c0.4,2,2.3,3.3,4.3,3
			s3.3-2.3,3-4.3c-0.1-0.6-0.3-1.1-0.7-1.6l2.7-8l1.9,2.6c0.4,0.6,1.1,0.9,1.8,0.8c0.7-0.1,1.3-0.5,1.6-1.1L48.2,21
			c0.4-1,0-2.1-1-2.5c-3.2-1.5-6.7-2.3-10.3-2.3c-13.4,0-24.3,10.9-24.3,24.4c0,13.4,10.9,24.3,24.4,24.3S61.4,54,61.4,40.5
			c0-3.5-0.7-6.9-2.2-10l3.8-9c10.9,14.4,8,34.9-6.4,45.7C51,71.5,44.1,73.8,37,73.8z"/>
	</g>
</g>
</svg>
